<?xml version="1.0" encoding="UTF-8"?>
<svg width="1200pt" height="1200pt" version="1.1" viewBox="0 0 1200 1200" xmlns="http://www.w3.org/2000/svg">
 <path d="m1039.1 226.37h-193.06v-56.996c0-76.852-62.52-139.37-139.4-139.37h-213.26c-76.852 0-139.4 62.52-139.4 139.37v56.996h-193.06c-30.496 0-55.156 24.645-55.156 55.172 0 30.527 24.66 55.156 55.156 55.156h29.418v651.65c0 100.39 81.281 181.66 181.3 181.66h456.75c100.02 0 181.3-81.266 181.3-181.66v-651.65h29.418c30.527 0 55.156-24.629 55.156-55.156 0-30.527-24.629-55.172-55.156-55.172zm-574.78-56.996c0-16.176 12.867-29.043 29.059-29.043h213.26c16.219 0 29.09 12.867 29.09 29.043v56.996h-271.41zm53.691 733.65c0 30.527-24.629 55.172-55.156 55.172s-55.188-24.645-55.188-55.172v-409.67c0-30.512 24.66-55.156 55.188-55.156s55.156 24.645 55.156 55.156zm274.34 0c0 30.527-24.66 55.172-55.188 55.172s-55.125-24.645-55.125-55.172l0.003906-409.67c0-30.512 24.602-55.156 55.125-55.156 30.527 0 55.188 24.645 55.188 55.156z" fill="#fff"/>
</svg>
